<svg width="25" height="25" viewBox="0 0 25 25" fill="none" xmlns="http://www.w3.org/2000/svg">
<path d="M12.4338 7.36331C10.937 7.36331 9.50152 7.95792 8.44311 9.01632C7.38471 10.0747 6.7901 11.5102 6.7901 13.0071C6.7901 14.5039 7.38471 15.9394 8.44311 16.9978C9.50152 18.0562 10.937 18.6508 12.4338 18.6508C13.9307 18.6508 15.3662 18.0562 16.4246 16.9978C17.483 15.9394 18.0776 14.5039 18.0776 13.0071C18.0776 11.5102 17.483 10.0747 16.4246 9.01632C15.3662 7.95792 13.9307 7.36331 12.4338 7.36331ZM12.4338 16.6226C10.4497 16.6226 8.81832 14.9912 8.81832 13.0071C8.81832 11.0229 10.4497 9.39153 12.4338 9.39153C14.418 9.39153 16.0494 11.0229 16.0494 13.0071C16.0494 14.9912 14.418 16.6226 12.4338 16.6226Z" fill="black"/>
<path d="M18.2981 8.5097C19.0043 8.5097 19.5767 7.93722 19.5767 7.23104C19.5767 6.52485 19.0043 5.95238 18.2981 5.95238C17.5919 5.95238 17.0194 6.52485 17.0194 7.23104C17.0194 7.93722 17.5919 8.5097 18.2981 8.5097Z" fill="black"/>
<path d="M21.605 3.92417C20.9975 3.32278 20.2734 2.85214 19.4772 2.54123C18.681 2.23033 17.8295 2.08575 16.9753 2.11641H7.89244C4.05646 2.11641 1.49915 4.67373 1.49915 8.50971V17.5485C1.49915 19.4445 2.11643 21.0758 3.351 22.2663C4.54147 23.4127 6.12878 23.9859 7.93654 23.9859H16.9312C18.8272 23.9859 20.4145 23.3686 21.5609 22.2663C22.7513 21.1199 23.3686 19.4885 23.3686 17.5926V8.50971C23.3686 6.65785 22.7513 5.07055 21.605 3.92417ZM21.4286 17.5926C21.4286 18.9594 20.9436 20.0617 20.1499 20.8113C19.3563 21.5609 18.254 21.9577 16.9312 21.9577H7.93654C6.61378 21.9577 5.51149 21.5609 4.71784 20.8113C4.30885 20.3764 3.99244 19.8629 3.7878 19.3021C3.58316 18.7412 3.49456 18.1446 3.52736 17.5485V8.50971C3.52736 7.18696 3.92419 6.08466 4.71784 5.29101C5.4674 4.54145 6.61378 4.14463 7.93654 4.14463H17.0194C18.3422 4.14463 19.4445 4.54145 20.2381 5.3351C20.9877 6.12875 21.4286 7.23105 21.4286 8.50971V17.5926Z" fill="black"/>
</svg>
