<svg width="120" height="39" viewBox="0 0 120 39" fill="none" xmlns="http://www.w3.org/2000/svg">
<path fill-rule="evenodd" clip-rule="evenodd" d="M104.22 32.3314C104.811 32.3433 105.385 32.5292 105.87 32.8659C106.355 33.2027 106.731 33.6752 106.948 34.2243C107.166 34.7735 107.217 35.3747 107.095 35.9526C106.972 36.5306 106.682 37.0595 106.26 37.4731C105.838 37.8866 105.304 38.1665 104.724 38.2774C104.143 38.3884 103.543 38.3256 102.999 38.0969C102.454 37.8682 101.989 37.4837 101.662 36.9917C101.335 36.4998 101.16 35.9222 101.16 35.3314C101.147 34.9288 101.218 34.5279 101.368 34.154C101.518 33.7802 101.744 33.4415 102.031 33.1595C102.319 32.8775 102.662 32.6583 103.039 32.5158C103.415 32.3732 103.818 32.3105 104.22 32.3314ZM110.93 32.3314C111.521 32.3433 112.095 32.5292 112.58 32.8659C113.065 33.2027 113.441 33.6752 113.658 34.2243C113.876 34.7735 113.927 35.3747 113.805 35.9526C113.682 36.5306 113.392 37.0595 112.97 37.4731C112.548 37.8866 112.014 38.1665 111.434 38.2774C110.853 38.3884 110.253 38.3256 109.709 38.0969C109.164 37.8682 108.699 37.4837 108.372 36.9917C108.045 36.4998 107.87 35.9222 107.87 35.3314C107.857 34.9288 107.928 34.5279 108.078 34.154C108.228 33.7802 108.454 33.4415 108.741 33.1595C109.029 32.8775 109.372 32.6583 109.749 32.5158C110.125 32.3732 110.528 32.3105 110.93 32.3314ZM85.7 32.3314C85.9452 32.3038 86.1935 32.3268 86.4294 32.3992C86.6654 32.4715 86.8839 32.5916 87.0714 32.752C87.259 32.9124 87.4116 33.1096 87.5197 33.3314C87.6279 33.5532 87.6892 33.7949 87.7 34.0414H86.85C86.85 33.5314 86.43 33.1514 85.71 33.1514C84.99 33.1514 84.56 33.5414 84.56 34.0714C84.56 34.6014 85.19 34.7714 85.88 34.8914C86.79 35.0514 87.81 35.2314 87.81 36.5214C87.81 37.6214 86.97 38.3014 85.69 38.3014C84.41 38.3014 83.6 37.6314 83.57 36.5414H84.46C84.46 37.1114 84.91 37.4714 85.69 37.4714C86.47 37.4714 86.94 37.1114 86.94 36.5414C86.94 35.9714 86.32 35.8414 85.63 35.7214H85.39C84.56 35.5614 83.7 35.3114 83.7 34.1314C83.6968 33.8768 83.748 33.6244 83.8502 33.3911C83.9523 33.1578 84.1031 32.9489 84.2924 32.7786C84.4817 32.6082 84.7052 32.4802 84.9479 32.4031C85.1907 32.326 85.4471 32.3015 85.7 32.3314ZM68.06 32.3314C68.6533 32.3314 69.2334 32.5074 69.7267 32.837C70.2201 33.1667 70.6046 33.6352 70.8316 34.1834C71.0587 34.7316 71.1181 35.3348 71.0023 35.9167C70.8866 36.4986 70.6009 37.0332 70.1813 37.4528C69.7618 37.8723 69.2272 38.158 68.6453 38.2738C68.0633 38.3895 67.4601 38.3301 66.9119 38.1031C66.3638 37.876 65.8952 37.4915 65.5656 36.9981C65.2359 36.5048 65.06 35.9248 65.06 35.3314C65.0491 34.9371 65.1183 34.5446 65.2633 34.1776C65.4083 33.8107 65.6262 33.477 65.9038 33.1966C66.1814 32.9163 66.5129 32.695 66.8783 32.5463C67.2437 32.3976 67.6355 32.3245 68.03 32.3314H68.06ZM91.48 32.3314C92.1368 32.3037 92.7839 32.4977 93.3172 32.8823C93.8504 33.2668 94.2388 33.8195 94.42 34.4514H93.42C93.2223 33.9959 92.8736 33.6224 92.4327 33.3938C91.9918 33.1652 91.4856 33.0956 90.9994 33.1966C90.5132 33.2975 90.0766 33.563 89.7631 33.9482C89.4497 34.3334 89.2786 34.8148 89.2786 35.3114C89.2786 35.808 89.4497 36.2895 89.7631 36.6747C90.0766 37.0599 90.5132 37.3253 90.9994 37.4263C91.4856 37.5273 91.9918 37.4576 92.4327 37.2291C92.8736 37.0005 93.2223 36.627 93.42 36.1714H94.42C94.2725 36.7215 93.9739 37.2193 93.5581 37.6084C93.1423 37.9975 92.6258 38.2625 92.0672 38.3732C91.5086 38.4839 90.9301 38.4361 90.3973 38.235C89.8645 38.034 89.3986 37.6877 89.0524 37.2356C88.7062 36.7834 88.4935 36.2433 88.4384 35.6765C88.3833 35.1096 88.488 34.5387 88.7407 34.0283C88.9933 33.518 89.3838 33.0885 89.8679 32.7886C90.3521 32.4887 90.9105 32.3303 91.48 32.3314ZM52.14 32.3314C52.7306 32.3433 53.3047 32.5292 53.79 32.8659C54.2754 33.2027 54.6506 33.6752 54.8685 34.2243C55.0864 34.7735 55.1373 35.3747 55.0149 35.9526C54.8924 36.5306 54.6021 37.0595 54.1802 37.4731C53.7584 37.8866 53.2238 38.1665 52.6436 38.2774C52.0633 38.3884 51.4632 38.3256 50.9185 38.0969C50.3738 37.8682 49.9088 37.4837 49.5817 36.9917C49.2547 36.4998 49.0801 35.9222 49.08 35.3314C49.0673 34.9315 49.1372 34.5332 49.2853 34.1615C49.4335 33.7897 49.6567 33.4526 49.9411 33.171C50.2255 32.8895 50.5649 32.6696 50.938 32.5251C51.3112 32.3807 51.7102 32.3147 52.11 32.3314H52.14ZM45.54 32.3314C46.1972 32.3019 46.8451 32.4953 47.3788 32.88C47.9124 33.2648 48.3004 33.8185 48.48 34.4514H47.54C47.3423 33.9959 46.9936 33.6224 46.5527 33.3938C46.1118 33.1652 45.6057 33.0956 45.1194 33.1966C44.6332 33.2975 44.1966 33.563 43.8831 33.9482C43.5697 34.3334 43.3986 34.8148 43.3986 35.3114C43.3986 35.808 43.5697 36.2895 43.8831 36.6747C44.1966 37.0599 44.6332 37.3253 45.1194 37.4263C45.6057 37.5273 46.1118 37.4576 46.5527 37.2291C46.9936 37.0005 47.3423 36.627 47.54 36.1714H48.48C48.3246 36.7038 48.0247 37.1826 47.6136 37.5548C47.2025 37.927 46.6963 38.1779 46.1512 38.2798C45.606 38.3817 45.0434 38.3304 44.5256 38.1318C44.0078 37.9331 43.5553 37.5949 43.2182 37.1546C42.881 36.7142 42.6726 36.1891 42.6159 35.6375C42.5592 35.0858 42.6565 34.5292 42.8971 34.0296C43.1376 33.5299 43.512 33.1067 43.9785 32.8069C44.445 32.5071 44.9856 32.3426 45.54 32.3314ZM74.77 32.3314C75.392 32.3026 76.007 32.4733 76.5251 32.8187C77.0433 33.1641 77.4374 33.6661 77.65 34.2514H76.65C76.4717 33.8945 76.1908 33.599 75.8433 33.403C75.4958 33.207 75.0977 33.1194 74.7 33.1514C74.1271 33.1514 73.5777 33.379 73.1726 33.7841C72.7676 34.1892 72.54 34.7386 72.54 35.3114C72.54 35.8843 72.7676 36.4337 73.1726 36.8388C73.5777 37.2439 74.1271 37.4714 74.7 37.4714C75.1665 37.5082 75.6311 37.3802 76.0129 37.1098C76.3948 36.8394 76.6698 36.4437 76.79 35.9914H74.39V35.1514H77.79V35.5814C77.747 36.1755 77.5309 36.744 77.1686 37.2167C76.8062 37.6894 76.3133 38.0457 75.7508 38.2416C75.1883 38.4374 74.5807 38.4643 74.0031 38.3188C73.4255 38.1733 72.9032 37.8619 72.5005 37.423C72.0978 36.9841 71.8325 36.4369 71.7372 35.849C71.642 35.261 71.7209 34.658 71.9644 34.1144C72.2079 33.5708 72.6052 33.1104 73.1073 32.79C73.6095 32.4696 74.1944 32.3032 74.79 32.3114L74.77 32.3314ZM115.77 32.4414V37.3614H118.99V38.1514H114.87V32.4414H115.77ZM82.85 32.4414V33.2714H79.52V34.8514H82.34V35.6714H79.52V37.3614H82.85V38.1514H78.62V32.4414H82.85ZM39.42 32.4414V33.2714H36.09V34.8514H38.91V35.6714H36.09V37.3614H39.42V38.1514H35.19V32.4414H39.42ZM59.99 32.4414V34.8614H63.19V32.4414H64.09V38.1514H63.19V35.6814H59.99V38.1514H59.09V32.4414H59.99ZM96.17 32.4414V34.8614H99.38V32.4414H100.27V38.1514H99.38V35.6814H96.17V38.1514H95.28V32.4414H96.17ZM31.25 32.4414C31.6418 32.4183 32.0342 32.4755 32.4031 32.6096C32.772 32.7436 33.1096 32.9516 33.3952 33.2209C33.6808 33.4901 33.9084 33.8149 34.0639 34.1752C34.2194 34.5356 34.2996 34.9239 34.2996 35.3164C34.2996 35.7089 34.2194 36.0973 34.0639 36.4576C33.9084 36.818 33.6808 37.1428 33.3952 37.412C33.1096 37.6813 32.772 37.8893 32.4031 38.0233C32.0342 38.1573 31.6418 38.2146 31.25 38.1914H29.2V32.4414H31.25ZM52.11 33.1514C51.6824 33.1495 51.2638 33.2745 50.9073 33.5106C50.5507 33.7467 50.2723 34.0834 50.1073 34.4779C49.9423 34.8724 49.8981 35.307 49.9803 35.7267C50.0625 36.1463 50.2674 36.5321 50.5691 36.8352C50.8708 37.1383 51.2556 37.345 51.6749 37.4292C52.0942 37.5133 52.529 37.4711 52.9243 37.308C53.3195 37.1448 53.6575 36.8679 53.8953 36.5125C54.1331 36.1571 54.26 35.7391 54.26 35.3114C54.2712 35.0256 54.2233 34.7406 54.1193 34.4742C54.0154 34.2077 53.8576 33.9655 53.6558 33.7628C53.454 33.5601 53.2126 33.4012 52.9466 33.296C52.6807 33.1908 52.3958 33.1416 52.11 33.1514ZM68.03 33.1514C67.6024 33.1495 67.1838 33.2745 66.8273 33.5106C66.4707 33.7467 66.1923 34.0834 66.0273 34.4779C65.8623 34.8724 65.8181 35.307 65.9003 35.7267C65.9825 36.1463 66.1874 36.5321 66.4891 36.8352C66.7908 37.1383 67.1756 37.345 67.5949 37.4292C68.0142 37.5133 68.449 37.4711 68.8443 37.308C69.2395 37.1448 69.5775 36.8679 69.8153 36.5125C70.053 36.1571 70.18 35.7391 70.18 35.3114C70.1912 35.0256 70.1433 34.7406 70.0393 34.4742C69.9353 34.2077 69.7775 33.9655 69.5758 33.7628C69.374 33.5601 69.1326 33.4012 68.8666 33.296C68.6006 33.1908 68.3158 33.1416 68.03 33.1514ZM104.22 33.1514C103.792 33.1495 103.374 33.2745 103.017 33.5106C102.661 33.7467 102.382 34.0834 102.217 34.4779C102.052 34.8724 102.008 35.307 102.09 35.7267C102.173 36.1463 102.377 36.5321 102.679 36.8352C102.981 37.1383 103.366 37.345 103.785 37.4292C104.204 37.5133 104.639 37.4711 105.034 37.308C105.43 37.1448 105.767 36.8679 106.005 36.5125C106.243 36.1571 106.37 35.7391 106.37 35.3114C106.383 35.0253 106.336 34.7396 106.232 34.4724C106.129 34.2053 105.971 33.9625 105.769 33.7595C105.567 33.5565 105.325 33.3976 105.058 33.2929C104.792 33.1883 104.506 33.1401 104.22 33.1514ZM110.93 33.1514C110.502 33.1495 110.084 33.2745 109.727 33.5106C109.371 33.7467 109.092 34.0834 108.927 34.4779C108.762 34.8724 108.718 35.307 108.8 35.7267C108.882 36.1463 109.087 36.5321 109.389 36.8352C109.691 37.1383 110.076 37.345 110.495 37.4292C110.914 37.5133 111.349 37.4711 111.744 37.308C112.14 37.1448 112.477 36.8679 112.715 36.5125C112.953 36.1571 113.08 35.7391 113.08 35.3114C113.093 35.0253 113.046 34.7396 112.942 34.4724C112.839 34.2053 112.681 33.9625 112.479 33.7595C112.277 33.5565 112.035 33.3976 111.768 33.2929C111.502 33.1883 111.216 33.1401 110.93 33.1514ZM31.25 33.2714H30.1V37.3614H31.25C31.7924 37.3614 32.3125 37.146 32.696 36.7625C33.0795 36.379 33.295 35.8588 33.295 35.3164C33.295 34.7741 33.0795 34.2539 32.696 33.8704C32.3125 33.4869 31.7924 33.2714 31.25 33.2714ZM58.3 35.4014V36.2014H55.7V35.4014H58.3ZM48.3 0.261437V17.6014C48.3 23.6014 44.22 27.6014 38.37 27.6014C32.52 27.6014 28.28 23.5214 28.28 17.6014C28.2169 16.3481 28.4117 15.0951 28.8525 13.92C29.2932 12.745 29.9704 11.6729 30.8422 10.7702C31.714 9.86745 32.7618 9.15327 33.9208 8.67186C35.0797 8.19045 36.3252 7.95206 37.58 7.97144C38.8066 7.91489 40.0267 8.17831 41.1207 8.73583C42.2147 9.29335 43.1449 10.1258 43.82 11.1514V0.261437H48.3ZM67.8 7.93144C72.37 7.93144 75.17 10.5014 75.28 13.7914H70.82C70.7 12.6514 69.7 11.8614 67.88 11.8614C65.88 11.8614 64.88 12.8014 64.88 13.8614C64.88 15.2914 66.58 15.5214 68.58 15.7914C71.08 16.1314 75.65 16.6214 75.65 21.2614C75.65 25.0414 72.59 27.5314 67.83 27.5314C63.07 27.5314 60.08 25.0014 59.97 21.5314H64.5C64.5 22.7714 65.64 23.6014 67.83 23.6014C70.02 23.6014 71.11 22.6614 71.11 21.5314C71.11 20.0914 69.45 19.9014 67.45 19.6414C64.58 19.2614 60.35 18.7714 60.35 14.2014C60.4 10.4214 63.31 7.93144 67.8 7.93144ZM13.15 1.93144C20.85 1.93144 26.29 7.37144 26.29 14.7714C26.29 22.1714 20.85 27.5714 13.15 27.5714C5.45 27.5714 0 22.1514 0 14.7314C0 7.31144 5.44 1.89144 13.15 1.89144V1.93144ZM87.59 7.93144C93.49 7.93144 97.59 12.0914 97.59 17.7514V19.3414H82.27C82.4991 20.5624 83.1661 21.6578 84.1456 22.4219C85.1252 23.186 86.3499 23.5663 87.59 23.4914C88.4143 23.568 89.245 23.4475 90.0135 23.1397C90.7821 22.832 91.4664 22.3458 92.01 21.7214H96.81C95.41 25.2714 92.01 27.5714 87.59 27.5714C81.7 27.5714 77.59 23.4214 77.59 17.7514C77.59 12.0814 81.7 7.93144 87.59 7.93144ZM109.43 7.93144C115.32 7.93144 119.43 12.0914 119.43 17.7514V19.3414H104.1C104.329 20.5643 104.998 21.6611 105.979 22.4254C106.961 23.1897 108.188 23.5689 109.43 23.4914C110.253 23.5672 111.082 23.4463 111.849 23.1385C112.615 22.8307 113.298 22.345 113.84 21.7214H118.64C117.24 25.2714 113.84 27.5714 109.43 27.5714C103.53 27.5714 99.43 23.4214 99.43 17.7514C99.43 12.0814 103.53 7.93144 109.43 7.93144ZM56.77 8.42144V27.0814H52.28V8.42144H56.77ZM38.34 12.1514C37.5987 12.1237 36.8597 12.2512 36.1706 12.5259C35.4815 12.8007 34.8575 13.2165 34.3386 13.7466C33.8198 14.2768 33.4175 14.9097 33.1577 15.6045C32.8979 16.2994 32.7863 17.0409 32.83 17.7814C32.7863 18.522 32.8979 19.2635 33.1577 19.9584C33.4175 20.6532 33.8198 21.2861 34.3386 21.8162C34.8575 22.3464 35.4815 22.7622 36.1706 23.0369C36.8597 23.3117 37.5987 23.4392 38.34 23.4114C39.0801 23.4396 39.8178 23.3121 40.5055 23.0371C41.1931 22.7621 41.8154 22.3457 42.3319 21.815C42.8485 21.2843 43.2479 20.651 43.5042 19.9562C43.7606 19.2614 43.8681 18.5205 43.82 17.7814C43.8666 17.0428 43.7579 16.3025 43.501 15.6084C43.2441 14.9143 42.8447 14.2817 42.3284 13.7513C41.8122 13.2209 41.1906 12.8045 40.5036 12.529C39.8167 12.2534 39.0797 12.1248 38.34 12.1514ZM13.15 6.38144C12.0493 6.34732 10.9534 6.54083 9.93093 6.94983C8.90846 7.35884 7.98145 7.97454 7.20793 8.75837C6.43442 9.54221 5.83107 10.4773 5.43566 11.5051C5.04025 12.5329 4.86129 13.6313 4.91 14.7314C4.85131 15.8373 5.02287 16.9433 5.41381 17.9795C5.80475 19.0156 6.40655 19.9593 7.18112 20.7508C7.95569 21.5423 8.88615 22.1643 9.9136 22.5776C10.9411 22.9908 12.0431 23.1862 13.15 23.1514C18.06 23.1514 21.38 19.6014 21.38 14.7714C21.4435 13.6666 21.2754 12.5608 20.8864 11.5248C20.4975 10.4888 19.8962 9.54552 19.1213 8.75553C18.3464 7.96554 17.4149 7.34626 16.3866 6.93741C15.3582 6.52857 14.2558 6.33919 13.15 6.38144ZM87.59 12.0114C86.4236 11.9388 85.2679 12.2715 84.3185 12.953C83.3691 13.6345 82.6843 14.6231 82.38 15.7514H92.81C92.502 14.6232 91.8149 13.6355 90.8642 12.9544C89.9135 12.2733 88.7573 11.9403 87.59 12.0114ZM109.43 12.0114C108.262 11.9384 107.105 12.2706 106.154 12.952C105.203 13.6335 104.516 14.6223 104.21 15.7514H114.64C114.332 14.625 113.647 13.6386 112.698 12.9577C111.75 12.2767 110.596 11.9426 109.43 12.0114ZM54.54 0.001437C54.9373 -0.0110544 55.333 0.0580015 55.7027 0.204345C56.0723 0.350688 56.408 0.571214 56.6891 0.852319C56.9702 1.13342 57.1908 1.46915 57.3371 1.83877C57.4834 2.2084 57.5525 2.60409 57.54 3.00144C57.54 3.79709 57.2239 4.56015 56.6613 5.12276C56.0987 5.68537 55.3357 6.00144 54.54 6.00144C53.7444 6.00144 52.9813 5.68537 52.4187 5.12276C51.8561 4.56015 51.54 3.79709 51.54 3.00144C51.5275 2.60409 51.5966 2.2084 51.7429 1.83877C51.8893 1.46915 52.1098 1.13342 52.3909 0.852319C52.672 0.571214 53.0077 0.350688 53.3773 0.204345C53.747 0.0580015 54.1427 -0.0110544 54.54 0.001437Z" fill="#2C2A50"/>
</svg>
