<svg width="25" height="25" viewBox="0 0 25 25" fill="none" xmlns="http://www.w3.org/2000/svg">
<path d="M23.2804 6.61376C22.4868 7.01059 21.649 7.23105 20.7231 7.36332C21.649 6.79013 22.3545 5.90829 22.7072 4.89419C21.8254 5.37919 20.8995 5.77602 19.8854 5.95239C19.2382 5.1692 18.3405 4.63351 17.3439 4.43592C16.3474 4.23832 15.3132 4.39094 14.4162 4.86796C13.5191 5.34498 12.8144 6.11713 12.4211 7.05386C12.0277 7.99059 11.97 9.03441 12.2575 10.0088C10.4901 9.92127 8.76071 9.46401 7.18101 8.66656C5.60131 7.86912 4.20642 6.74922 3.08642 5.37919C2.50183 6.35593 2.31765 7.52091 2.57241 8.63035C2.82717 9.73979 3.50113 10.7077 4.45327 11.3316C3.75584 11.3003 3.07581 11.1038 2.46914 10.7584V10.8025C2.46914 13.0071 3.96826 14.7707 5.99648 15.2116C5.34664 15.3739 4.66876 15.389 4.01235 15.2557C4.58554 17.0194 6.21693 18.3422 8.15697 18.3422C7.23078 19.0711 6.16975 19.6099 5.03478 19.9277C3.89981 20.2455 2.71325 20.336 1.54321 20.194C3.49449 21.4688 5.76091 22.1779 8.09081 22.2424C10.4207 22.307 12.7229 21.7246 14.7418 20.5599C16.7607 19.3951 18.4173 17.6936 19.5277 15.6443C20.638 13.5949 21.1586 11.278 21.0317 8.95062C21.9136 8.33334 22.7072 7.53969 23.2804 6.65785V6.61376Z" fill="black"/>
</svg>
