<svg width="25" height="25" viewBox="0 0 25 25" fill="none" xmlns="http://www.w3.org/2000/svg">
<g clip-path="url(#clip0_12_126)">
<path d="M24.834 7.26563C24.834 5.06836 23.2178 3.30078 21.2207 3.30078C18.5156 3.17383 15.7568 3.125 12.9395 3.125H12.0605C9.24805 3.125 6.48437 3.17383 3.7793 3.30078C1.78711 3.30078 0.170898 5.07812 0.170898 7.27539C0.0488278 9.01367 -0.00488316 10.752 -3.52288e-07 12.4902C-0.00488316 14.2285 0.0488278 15.9668 0.166015 17.71C0.166015 19.9072 1.78223 21.6895 3.77441 21.6895C6.61621 21.8213 9.53125 21.8799 12.4951 21.875C15.4639 21.8848 18.3691 21.8262 21.2158 21.6895C23.2129 21.6895 24.8291 19.9072 24.8291 17.71C24.9463 15.9668 25 14.2285 24.9951 12.4854C25.0049 10.7471 24.9512 9.00879 24.834 7.26563ZM10.1074 17.2803V7.68555L17.1875 12.4805L10.1074 17.2803Z" fill="black"/>
</g>
<defs>
<clipPath id="clip0_12_126">
<rect width="25" height="25" fill="white"/>
</clipPath>
</defs>
</svg>
